<?xml version="1.0" encoding="utf-8"?>
<!-- Generator: Adobe Illustrator 26.5.0, SVG Export Plug-In . SVG Version: 6.00 Build 0)  -->
<svg version="1.1" id="レイヤー_1" xmlns="http://www.w3.org/2000/svg" xmlns:xlink="http://www.w3.org/1999/xlink" x="0px"
	 y="0px" viewBox="0 0 251.2 35.5" style="enable-background:new 0 0 251.2 35.5;" xml:space="preserve">
<style type="text/css">
	.st0{fill:#E50012;}
</style>
<g>
	<g>
		<g>
			<path class="st0" d="M19.3,15.3l2.5-10.2h6c1.5,0,3,1.1,3,3.7c0,2.9-1.4,6.5-5.5,6.5H19.3z M9.3,3c2,0,3.2,1.6,2.7,3.6L6.4,28.9
				c-0.5,2-2.5,3.6-4.5,3.6H0.8l-0.8,3h19.8l0.8-3h-2c-2,0-3.2-1.6-2.7-3.6l2.1-8.5h11.2c3.9,0,12.3-3.5,12.3-11.6
				c0-8.7-6.9-8.8-8.9-8.8H8.2L7.4,3C7.4,3,9.3,3,9.3,3z"/>
			<path class="st0" d="M55.9,8.8l1.6,13.5H48L55.9,8.8z M45.8,26H58l0.6,5.2c0,0.1,0,0.1,0,0.2c0,0.7-0.5,1.2-1.2,1.2h-2.3v3h17.2
				l0.8-3h-2.3c-1.6,0-2.6-1-2.8-2.3L64.8,4.1c0,0,0-0.1,0-0.1c0-0.5,0.4-0.9,0.9-0.9h3.2l0.8-3H49.8L49,3h1.5C51.4,3,52,3.7,52,4.5
				c0,0.3-0.1,0.5-0.2,0.7L37.1,30c-0.8,1.5-2.5,2.5-4.1,2.5h-1l-0.8,3h14.8v-3h-1.3c-1.1,0-1.8-0.9-1.5-2c0.1-0.3,0.2-0.5,0.3-0.8
				L45.8,26z"/>
			<g>
				<path class="st0" d="M95.3,32.5c-2,0-3.2-1.6-2.7-3.6l5.9-23.8h4.5c2,0,3.2,1.6,2.7,3.6l-0.6,2.5h3.7L111.6,0H78.1l-2.8,11.2H79
					l0.6-2.5c0.5-2,2.5-3.6,4.5-3.6h4.9l-5.9,23.8c-0.5,2-2.5,3.6-4.5,3.6h-1.2l-0.8,3h19.8l0.8-3H95.3z"/>
			</g>
			<g>
				<path class="st0" d="M162.7,6.6c0.5-2,2.5-3.6,4.5-3.6h1.2l0.8-3h-19.8l-0.8,3h1.9c2,0,3.2,1.6,2.7,3.6l-5.5,22.3
					c-0.5,2-2.5,3.6-4.5,3.6H142l-0.8,3h19.8l0.8-3h-1.9c-2,0-3.2-1.6-2.7-3.6L162.7,6.6z"/>
			</g>
			<g>
				<path class="st0" d="M121.6,31.3h9.2c2.6,0,5.1-2.1,5.8-4.6l0.6-2.3h3.7l-2.8,11.2h-31.9l0.8-3h1.2c2,0,4-1.6,4.5-3.6l5.5-22.3
					c0.5-2-0.7-3.6-2.7-3.6h-1.9l0.8-3h19.8l-0.8,3h-1.2c-2,0-4,1.6-4.5,3.6L121.6,31.3z"/>
			</g>
			<g>
				<path class="st0" d="M220.9,19.2h3.3c2,0,3.2,1.6,2.7,3.6l-0.3,1.2h3.7l3.3-13.4h-3.7c-0.6,1.9-2.5,3.5-4.5,3.5h-3.3l2.4-9.8
					h9.3c2,0,3.2,1.6,2.7,3.6l-0.5,2h3.7l2.5-9.9h-31.6l-0.8,3h1.9c2,0,3.2,1.6,2.7,3.6L209,28.9c-0.5,2-2.5,3.6-4.5,3.6h-1.2
					l-0.8,3h30.9l2.6-10.3h-3.7l-0.4,1.6c-0.5,2-2.5,3.6-4.5,3.6H218L220.9,19.2z"/>
			</g>
			<g>
				<path class="st0" d="M190.7,32.5c-2,0-3.2-1.6-2.7-3.6l5.9-23.8h4.5c2,0,3.2,1.6,2.7,3.6l-0.6,2.5h3.7L207,0h-33.5l-2.8,11.2
					h3.7l0.6-2.5c0.5-2,2.5-3.6,4.5-3.6h4.9l-5.9,23.8c-0.5,2-2.5,3.6-4.5,3.6h-1.2l-0.8,3h19.8l0.8-3H190.7z"/>
			</g>
		</g>
		<g>
			<g>
				<g>
					<path class="st0" d="M243.9,33h-0.9v-6.6h3.1c1.1,0,2.2,0.4,2.2,1.8c0,1-0.5,1.3-0.9,1.6c0.4,0.2,0.8,0.3,0.8,1.2l0,1.2
						c0,0.4,0.1,0.5,0.3,0.7V33h-1.1c-0.1-0.4-0.2-1.4-0.2-1.7c0-0.5-0.1-1.2-1.2-1.2h-2.2L243.9,33L243.9,33z M243.9,29.4h2.1
						c0.6,0,1.3-0.2,1.3-1.1c0-1-0.7-1.1-1.2-1.1H244L243.9,29.4L243.9,29.4z"/>
					<path class="st0" d="M245.3,34.5c-2.7,0-4.9-2.2-4.9-4.9s2.2-4.9,4.9-4.9c2.7,0,4.9,2.2,4.9,4.9
						C250.2,32.3,248,34.5,245.3,34.5z M245.3,23.7c-3.3,0-5.9,2.6-5.9,5.9c0,3.3,2.6,5.9,5.9,5.9c3.3,0,5.9-2.6,5.9-5.9
						S248.6,23.7,245.3,23.7z"/>
				</g>
			</g>
		</g>
	</g>
</g>
</svg>
